<?xml version="1.0" ?><svg height="512" id="svg2" version="1.1" width="512" xmlns="http://www.w3.org/2000/svg" xmlns:cc="http://creativecommons.org/ns#" xmlns:dc="http://purl.org/dc/elements/1.1/" xmlns:inkscape="http://www.inkscape.org/namespaces/inkscape" xmlns:rdf="http://www.w3.org/1999/02/22-rdf-syntax-ns#" xmlns:sodipodi="http://sodipodi.sourceforge.net/DTD/sodipodi-0.dtd" xmlns:svg="http://www.w3.org/2000/svg"><defs id="defs4"/><g id="layer1" transform="translate(0,-540.3622)"><path d="m 420.13961,999.09658 c 5.09105,0 10.15073,-2.11819 13.75,-5.71875 l 54.99999,-55.00001 c 3.5913,-3.59815 5.6875,-8.63504 5.6875,-13.71875 0,-5.08369 -2.0962,-10.15184 -5.6875,-13.75 L 374.32711,796.34657 488.8896,681.78407 c 3.6642,-3.66678 5.7644,-8.84801 5.6875,-14.03125 -0.078,-4.9853 -2.1631,-9.91076 -5.6875,-13.4375 l -54.99999,-55 c -3.59927,-3.6006 -8.65895,-5.6875 -13.75,-5.6875 -5.09105,0 -10.15073,2.0869 -13.75,5.6875 L 223.10836,782.59657 c -3.60056,3.59928 -5.6875,8.65895 -5.6875,13.75 0,5.09105 2.08694,10.15073 5.6875,13.75 l 183.28125,183.28126 c 3.59927,3.60056 8.65895,5.71875 13.75,5.71875 z m -200,0 c 5.09105,0 10.15073,-2.11819 13.75,-5.71875 l 55,-55.00001 c 3.59127,-3.59815 5.6875,-8.63504 5.6875,-13.71875 0,-5.08369 -2.09623,-10.15184 -5.6875,-13.75 l -114.5625,-114.5625 114.5625,-114.5625 c 3.66423,-3.66678 5.76442,-8.84801 5.6875,-14.03125 -0.0784,-4.9853 -2.16308,-9.91076 -5.6875,-13.4375 l -55,-55 c -3.59927,-3.6006 -8.65895,-5.6875 -13.75,-5.6875 -5.09105,0 -10.15073,2.0869 -13.75,5.6875 L 23.108363,782.59657 c -3.60056,3.59928 -5.6875,8.65895 -5.6875,13.75 0,5.09105 2.08694,10.15073 5.6875,13.75 L 206.38961,993.37783 c 3.59927,3.60056 8.65895,5.71875 13.75,5.71875 z" id="path3766-1" style="font-size:medium;font-style:normal;font-variant:normal;font-weight:normal;font-stretch:normal;text-indent:0;text-align:start;text-decoration:none;line-height:normal;letter-spacing:normal;word-spacing:normal;text-transform:none;direction:ltr;block-progression:tb;writing-mode:lr-tb;text-anchor:start;baseline-shift:baseline;color:#000000;fill:#222222;fill-opacity:1;fill-rule:nonzero;stroke:none;stroke-width:38.88000107;marker:none;visibility:visible;display:inline;overflow:visible;enable-background:accumulate;font-family:Sans;-inkscape-font-specification:Sans"/></g></svg>